<svg xmlns="http://www.w3.org/2000/svg" width="32" height="32" fill="none"><g clip-path="url(#a)"><circle cx="16" cy="16" r="16" fill="#fff"/><path fill="#090D64" d="M22.792 13.292h-.855l-1.77-4.875a2.092 2.092 0 0 0-1.959-1.375h-1.666c-.573 0-1.042.468-1.042 1.041s.469 1.042 1.042 1.042h1.666l1.521 4.167h-5.01l-.375-1.042h.094c.572 0 1.041-.469 1.041-1.042 0-.573-.469-1.041-1.041-1.041h-3.105c-.573 0-1.041.468-1.041 1.041s.468 1.042 1.041 1.042h.782l1.895 5.208h-.697c-.459-2.323-2.407-4.041-4.844-4.156C5.552 13.156 3 15.583 3 18.5c0 2.917 2.292 5.208 5.208 5.208 2.563 0 4.636-1.76 5.104-4.166h4.376c.458 2.323 2.406 4.041 4.843 4.156C25.448 23.833 28 21.417 28 18.49c0-2.907-2.292-5.198-5.208-5.198ZM9.25 19.542h1.896c-.438 1.28-1.667 2.166-3.146 2.073-1.552-.094-2.844-1.407-2.917-2.97-.073-1.822 1.323-3.27 3.125-3.27 1.386 0 2.521.865 2.938 2.083H9.25c-.573 0-1.042.47-1.042 1.042 0 .573.47 1.042 1.042 1.042Zm8.438-2.084h-1.459l-.76-2.083h3.156a4.931 4.931 0 0 0-.938 2.083Zm4.979 4.167c-1.605-.063-2.959-1.427-3-3.042-.021-1 .406-1.875 1.093-2.458l.646 1.77a1.04 1.04 0 0 0 1.334.626 1.04 1.04 0 0 0 .625-1.334l-.657-1.802.01-.01a3.093 3.093 0 0 1 3.199 3.125c0 1.792-1.438 3.188-3.25 3.125Z"/></g><defs><clipPath id="a"><path fill="#fff" d="M0 0h32v32H0z"/></clipPath></defs></svg>